<svg aria-hidden="true" style="position: absolute; width: 0; height: 0; overflow: hidden;" version="1.1"
    xmlns="http://www.w3.org/2000/svg"
    xmlns:xlink="http://www.w3.org/1999/xlink">
    <defs>
        <symbol id="icon-close" viewBox="0 0 32 32">
            <path d="M25.592 8.556c0.3-0.278 0.488-0.675 0.488-1.116 0-0.839-0.681-1.52-1.52-1.52-0.44 0-0.837 0.187-1.115 0.487l-0.001 0.001-7.444 7.444-7.444-7.444c-0.278-0.3-0.675-0.488-1.116-0.488-0.839 0-1.52 0.681-1.52 1.52 0 0.44 0.187 0.837 0.487 1.115l0.001 0.001 7.444 7.444-7.444 7.444c-0.3 0.279-0.488 0.675-0.488 1.116 0 0.839 0.681 1.52 1.52 1.52 0.44 0 0.837-0.187 1.115-0.487l0.001-0.001 7.444-7.444 7.444 7.444c0.279 0.3 0.675 0.488 1.116 0.488 0.839 0 1.52-0.681 1.52-1.52 0-0.44-0.187-0.837-0.487-1.115l-0.001-0.001-7.444-7.444 7.444-7.444z"></path>
        </symbol>
        <symbol id="icon-menu" viewBox="0 0 32 32">
            <path d="M4 22.667c0 0.736 0.597 1.333 1.333 1.333v0h21.333c0.736 0 1.333-0.597 1.333-1.333s-0.597-1.333-1.333-1.333v0h-21.333c-0.736 0-1.333 0.597-1.333 1.333v0zM4 16c0 0.736 0.597 1.333 1.333 1.333v0h21.333c0.736 0 1.333-0.597 1.333-1.333s-0.597-1.333-1.333-1.333v0h-21.333c-0.736 0-1.333 0.597-1.333 1.333v0zM5.333 8c-0.736 0-1.333 0.597-1.333 1.333s0.597 1.333 1.333 1.333v0h21.333c0.736 0 1.333-0.597 1.333-1.333s-0.597-1.333-1.333-1.333v0h-21.333z"></path>
        </symbol>
        <symbol id="icon-sound-waves" viewBox="0 0 27 32">
            <path d="M3.208 11.789c0.354 0 0.642 0.287 0.642 0.642v7.138c0 0.354-0.287 0.642-0.642 0.642s-0.642-0.287-0.642-0.642v-7.138c0-0.354 0.287-0.642 0.642-0.642z"></path>
            <path d="M0.642 13.895c0.354 0 0.642 0.287 0.642 0.642v2.927c0 0.354-0.287 0.642-0.642 0.642s-0.642-0.287-0.642-0.642v-2.927c0-0.354 0.287-0.642 0.642-0.642z"></path>
            <path d="M26.306 13.895c0.354 0 0.642 0.287 0.642 0.642v2.927c0 0.354-0.287 0.642-0.642 0.642s-0.642-0.287-0.642-0.642v-2.927c0-0.354 0.287-0.642 0.642-0.642z"></path>
            <path d="M5.774 10.526c0.354 0 0.642 0.287 0.642 0.642v9.664c0 0.354-0.287 0.642-0.642 0.642s-0.642-0.287-0.642-0.642v-9.664c0-0.354 0.287-0.642 0.642-0.642z"></path>
            <path d="M8.341 6.737c0.354 0 0.642 0.287 0.642 0.642v17.243c0 0.354-0.287 0.642-0.642 0.642s-0.642-0.287-0.642-0.642v-17.243c0-0.354 0.287-0.642 0.642-0.642z"></path>
            <path d="M10.907 9.263c0.354 0 0.642 0.287 0.642 0.642v12.19c0 0.354-0.287 0.642-0.642 0.642s-0.642-0.287-0.642-0.642v-12.19c0-0.354 0.287-0.642 0.642-0.642z"></path>
            <path d="M13.474 2.526c0.354 0 0.642 0.287 0.642 0.642v25.664c0 0.354-0.287 0.642-0.642 0.642s-0.642-0.287-0.642-0.642v-25.664c0-0.354 0.287-0.642 0.642-0.642z"></path>
            <path d="M16.040 0c0.354 0 0.642 0.287 0.642 0.642v30.717c0 0.354-0.287 0.642-0.642 0.642s-0.642-0.287-0.642-0.642v-30.717c0-0.354 0.287-0.642 0.642-0.642z"></path>
            <path d="M18.606 6.737c0.354 0 0.642 0.287 0.642 0.642v17.243c0 0.354-0.287 0.642-0.642 0.642s-0.642-0.287-0.642-0.642v-17.243c0-0.354 0.287-0.642 0.642-0.642z"></path>
            <path d="M21.173 9.684c0.354 0 0.642 0.287 0.642 0.642v11.348c0 0.354-0.287 0.642-0.642 0.642s-0.642-0.287-0.642-0.642v-11.348c0-0.354 0.287-0.642 0.642-0.642z"></path>
            <path d="M23.739 11.368c0.354 0 0.642 0.287 0.642 0.642v7.98c0 0.354-0.287 0.642-0.642 0.642s-0.642-0.287-0.642-0.642v-7.98c0-0.354 0.287-0.642 0.642-0.642z"></path>
        </symbol>
        <symbol id="icon-bose-logo" viewBox="0 0 264 32">
            <path d="M181.881 32.020l18.833-32.039h63.101v5.283h-47.333l-4.675 8.082h24.987l-3.011 5.283h-25.119l-4.808 8.082h25.119l-3.143 5.309h-43.951zM136.583 23.673h18.938c-0.634 0.924-0.924 1.849-0.528 2.43 0.686 1.030 3.117 0.528 3.751 0.317 1.267-0.396 1.955-1.189 2.561-2.245l3.17-5.547h-19.308c-4.042 0-4.174-2.404-2.536-5.283l5.943-10.090c1.77-2.905 4.147-3.275 7.184-3.275h33.571c3.408 0 3.408 2.773 2.034 5.283l-1.902 3.407h-19.044c0.581-1.109 0.607-2.087 0.158-2.694-0.74-1.004-2.694-0.792-3.724-0.264-0.819 0.449-1.506 1.215-2.245 2.456l-3.037 5.177h18.674c3.936 0 4.543 2.879 3.302 5.283l-5.679 9.482c-1.532 2.509-4.173 3.909-7.211 3.909h-33.333c-3.275 0-4.411-2.166-3.011-4.543l2.271-3.803zM96.699 5.263c3.037-5.283 8.082-5.283 11.992-5.283h28.527c3.011 0 5.546 2.509 3.908 5.283l-12.599 21.448c-2.668 4.279-4.807 5.309-8.215 5.309h-33.201c-3.275 0-4.781-2.404-3.011-5.309l12.599-21.448zM113.26 8.168l-9.614 16.006c-0.317 0.581-0.449 1.109-0.264 1.532 0.608 1.321 4.332 1.083 5.626 0.819 1.849-0.423 2.324-1.743 2.721-2.351l9.482-16.006c0.66-1.136 0.581-1.875 0-2.324-0.845-0.66-3.434-0.713-4.86-0.317-1.215 0.343-2.219 1.109-3.090 2.641zM50.634-0.020h36.609c2.905 0 5.177 2.641 3.275 5.811l-3.777 6.418c-1.638 2.905-4.411 4.279-6.445 4.279 2.034 1.136 2.034 3.143 1.004 4.913l-3.777 6.576c-1.004 1.77-2.536 4.042-7.184 4.042h-70.338v-5.309h34.865l15.769-26.73zM61.622 13.345h9.324c2.166 0 3.037-1.136 3.539-2.139l1.902-3.037c0.766-1.373 0.766-2.905-0.872-2.905h-9.113l-4.781 8.082zM53.672 26.711h9.324c2.166 0 3.037-1.136 3.539-2.139l1.902-3.038c0.766-1.4 0.766-2.905-0.898-2.905h-9.086l-4.781 8.082zM261.358 11.681c-1.452 0-2.694-1.136-2.694-2.668s1.242-2.641 2.694-2.641c1.453 0 2.668 1.109 2.668 2.641s-1.215 2.668-2.668 2.668zM259.192 9.014c0 1.268 0.952 2.219 2.166 2.219 1.189 0 2.139-0.951 2.139-2.219s-0.951-2.219-2.139-2.219c-1.214 0-2.166 0.951-2.166 2.219zM260.804 9.225v1.321h-0.475v-3.064h1.162c0.74 0 1.083 0.264 1.083 0.872 0 0.555-0.343 0.792-0.792 0.845l0.872 1.347h-0.529l-0.792-1.321h-0.528zM260.804 8.829h0.555c0.396 0 0.74-0.026 0.74-0.502 0-0.37-0.344-0.449-0.661-0.449h-0.634v0.951z"></path>
        </symbol>
    </defs>
</svg>
